<?xml version="1.0" encoding="utf-8"?>
<!-- Generator: Adobe Illustrator 24.0.1, SVG Export Plug-In . SVG Version: 6.00 Build 0)  -->
<svg version="1.1" id="Layer_1" xmlns="http://www.w3.org/2000/svg" xmlns:xlink="http://www.w3.org/1999/xlink" x="0px" y="0px"
	 width="260px" height="185px" viewBox="0 0 260 185" style="enable-background:new 0 0 260 185;" xml:space="preserve">
<style type="text/css">
	.st0{clip-path:url(#SVGID_2_);fill:#001A4B;}
</style>
<g>
	<g>
		<defs>
			<rect id="SVGID_1_" x="1.646" y="65.34" width="256.709" height="54.319"/>
		</defs>
		<clipPath id="SVGID_2_">
			<use xlink:href="#SVGID_1_"  style="overflow:visible;"/>
		</clipPath>
		<path class="st0" d="M157.178,75.162c-3.918,0-5.812,1.499-5.969,4.313h3.866c0.053-0.736,0.473-1.289,2.104-1.289
			c1.446,0,2.13,0.473,2.13,1.183c0,0.631-0.394,0.868-1.368,0.973l-2.524,0.263c-3.418,0.368-4.97,1.788-4.97,4.365
			c0,2.393,1.473,4.234,4.602,4.234c2.13,0,3.392-0.684,4.497-2.051v1.657h3.629v-8.704
			C163.174,76.451,161.044,75.162,157.178,75.162 M159.387,83.656c0,1.446-1.368,2.524-3.471,2.524
			c-1.026,0-1.631-0.473-1.631-1.367c0-0.684,0.421-1.262,1.762-1.446l2.288-0.316c0.394-0.052,0.815-0.131,1.052-0.21V83.656z
			 M144.398,80.5c3.366,0.447,5.049,1.499,5.049,4.26c0,2.788-1.972,4.444-6.153,4.444c-4.549,0-6.153-1.814-6.232-4.471h3.918
			c0.105,0.973,0.789,1.446,2.314,1.446c1.551,0,2.183-0.368,2.183-1.104c0-0.684-0.526-0.999-1.893-1.183l-1.394-0.184
			c-2.919-0.394-4.602-1.525-4.602-4.155c0-2.524,1.867-4.392,5.785-4.392c3.629,0,5.575,1.446,5.759,4.313h-3.866
			c-0.131-0.763-0.552-1.236-1.893-1.236c-1.315,0-1.815,0.447-1.815,1.026c0,0.578,0.316,0.894,1.446,1.052L144.398,80.5
			 M130.815,75.162c3.445,0,5.207,1.525,5.207,5.89v7.758h-3.971v-7.574c0-1.762-0.763-2.551-2.419-2.551
			c-1.499,0-2.393,0.789-2.393,2.551v7.574h-3.971V75.556h3.734v1.525C127.554,76.056,128.685,75.162,130.815,75.162
			 M115.637,75.162c-3.918,0-5.812,1.499-5.969,4.313h3.866c0.053-0.736,0.473-1.289,2.104-1.289c1.446,0,2.13,0.473,2.13,1.183
			c0,0.631-0.395,0.868-1.367,0.973l-2.524,0.263c-3.419,0.368-4.97,1.788-4.97,4.365c0,2.393,1.473,4.234,4.602,4.234
			c2.13,0,3.392-0.684,4.497-2.051v1.657h3.629v-8.704C121.633,76.451,119.503,75.162,115.637,75.162 M117.846,83.656
			c0,1.446-1.368,2.525-3.471,2.525c-1.026,0-1.63-0.473-1.63-1.367c0-0.684,0.421-1.262,1.762-1.446l2.288-0.316
			c0.394-0.053,0.815-0.131,1.052-0.21V83.656z M102.594,75.162c3.366,0,5.128,1.525,5.128,5.89v7.758h-3.971v-7.574
			c0-1.762-0.763-2.551-2.419-2.551c-1.499,0-2.393,0.789-2.393,2.551v7.574h-3.971V70.429h3.997v6.416
			C99.649,75.872,100.727,75.162,102.594,75.162 M90.778,75.556h3.024v3.235h-3.024v5.154c0,1.42,0.736,1.788,1.893,1.788
			c0.473,0,1.131-0.079,1.131-0.079v3.182c0,0-0.92,0.21-1.893,0.21c-3.182,0-5.102-1.446-5.102-4.654v-5.601h-1.999v-3.235h1.999
			v-3.866h3.971V75.556z M76.894,75.057c0-3.208,2.025-4.918,5.207-4.918c1.026,0,1.683,0.158,1.683,0.158v3.208
			c0,0-0.552-0.052-1.026-0.052c-1.236,0-1.893,0.421-1.893,1.578v0.526h2.919v3.235h-2.919V88.81h-3.971V78.791h-1.998v-3.235
			h1.998V75.057 M69.873,75.556h3.971V88.81H70.11v-1.525c-0.552,1.026-1.683,1.92-3.761,1.92c-3.392,0-5.154-1.525-5.154-5.89
			v-7.758h3.971v7.573c0,1.762,0.763,2.551,2.367,2.551c1.446,0,2.34-0.789,2.34-2.551V75.556z M52.385,85.102h7.915v3.708H48.125
			V70.402h4.26V85.102z M15.912,93.412c7.648,0,13.806-6.185,13.806-13.806c0-7.648-6.157-13.806-13.806-13.806
			c-7.621,0-13.806,6.157-13.806,13.806C2.106,87.227,8.291,93.412,15.912,93.412 M22.125,85.57l1.16-1.104h-0.276
			c-2.927,0-5.55-0.967-7.069-2.596c1.27-0.773,2.844-1.132,5.025-1.132c0.58,0,1.409,0.055,2.182,0.138l0.663-0.635
			c-1.132-0.138-2.209-0.193-3.12-0.193c-0.746,0-1.408,0.028-2.099,0.083l0.497-0.607c0.387-0.028,1.215-0.055,1.767-0.055
			c1.463,0,2.43,0.055,3.534,0.221l0.635-0.607c-1.16-0.193-2.761-0.304-4.225-0.304c-0.304,0-0.69,0-1.187,0.028l0.359-0.607h0.58
			c2.07,0,3.617,0.11,5.025,0.359l0.635-0.607c-1.574-0.276-3.479-0.442-5.412-0.442H20.33l0.304-0.58h0.525
			c2.016,0,3.838,0.166,5.605,0.497l0.663-0.635c-1.988-0.387-4.114-0.58-6.406-0.58c-0.994,0-1.988,0.055-2.927,0.138
			c-1.104,2.374-2.872,3.755-4.859,3.728c-0.773-0.028-1.74-0.359-2.982-1.022l-1.16-0.663l0.359-0.331l2.678,1.16l0.58-0.442
			L7.297,76.32l-0.828,0.635l-1.933-0.801l0.028,0.801c2.595,1.187,3.672,1.85,6.406,3.811
			C14.531,83.306,17.707,84.687,22.125,85.57 M15.912,92.418C8.871,92.418,3.1,86.647,3.1,79.606
			c0-7.069,5.771-12.812,12.812-12.812c7.069,0,12.812,5.743,12.812,12.812C28.724,86.647,22.981,92.418,15.912,92.418
			 M52.386,114.571h-4.26V96.164h4.26V114.571z M61.589,100.923c3.445,0,5.207,1.525,5.207,5.891v7.758h-3.971v-7.574
			c0-1.762-0.763-2.551-2.419-2.551c-1.499,0-2.393,0.789-2.393,2.551v7.574h-3.971v-13.254h3.734v1.525
			C58.329,101.817,59.459,100.923,61.589,100.923 M82.127,96.164v18.408h-3.734v-1.236c-0.868,0.999-2.183,1.63-4.102,1.63
			c-4.602,0-6.259-2.761-6.259-7.021c0-4.26,1.657-7.021,6.259-7.021c1.736,0,2.998,0.526,3.866,1.367v-6.127H82.127z
			 M78.262,107.945c0-2.209-0.92-3.498-3.103-3.498c-2.183,0-3.103,1.289-3.103,3.498c0,2.209,0.92,3.497,3.103,3.497
			C77.341,111.442,78.262,110.154,78.262,107.945 M88.806,114.966c-3.392,0-5.154-1.525-5.154-5.89v-7.758h3.971v7.574
			c0,1.762,0.763,2.551,2.367,2.551c1.446,0,2.34-0.789,2.34-2.551v-7.574h3.971v13.254h-3.734v-1.525
			C92.015,114.072,90.884,114.966,88.806,114.966 M97.352,110.495h3.918c0.105,0.973,0.789,1.446,2.314,1.446
			c1.552,0,2.183-0.368,2.183-1.104c0-0.684-0.526-0.999-1.893-1.183l-1.394-0.184c-2.919-0.394-4.602-1.525-4.602-4.155
			c0-2.551,1.657-4.392,5.785-4.392c3.655,0,5.575,1.446,5.759,4.313h-3.866c-0.131-0.763-0.552-1.236-1.893-1.236
			c-1.315,0-1.814,0.447-1.814,1.026c0,0.579,0.316,0.894,1.446,1.052l1.394,0.184c3.366,0.447,5.049,1.499,5.049,4.26
			c0,2.787-1.841,4.444-6.153,4.444C99.035,114.966,97.431,113.151,97.352,110.495 M116.128,104.552v5.154
			c0,1.42,0.736,1.788,1.893,1.788c0.473,0,1.131-0.079,1.131-0.079v3.182c0,0-0.92,0.21-1.893,0.21
			c-3.182,0-5.102-1.446-5.102-4.655v-5.601h-1.999v-3.235h1.999v-3.866h3.971v3.866h3.024v3.235H116.128z M126.778,104.684
			c-1.42,0-2.472,0.71-2.472,2.419v7.468h-3.971v-13.254h3.734v1.525h0.026c0.526-1.026,1.63-1.92,3.629-1.92
			c0.158,0,0.579,0.026,0.736,0.053v3.813C127.856,104.71,127.304,104.684,126.778,104.684 M143.503,101.318l-7.6,17.882h-4.208
			l2.367-5.207l-5.312-12.675h4.392l2.893,7.968l3.077-7.968H143.503z M156.915,99.398c-2.367,0-3.05,0.842-3.05,1.841
			c0,0.973,0.578,1.42,2.288,1.63l2.603,0.316c3.866,0.473,5.969,2.183,5.969,5.838c0,3.918-2.735,5.943-7.889,5.943
			c-5.812,0-7.81-2.498-8.099-6.39h4.339c0.158,1.499,0.71,2.682,3.76,2.682c2.551,0,3.498-0.71,3.498-1.972
			c0-1.052-0.605-1.657-2.919-1.946l-2.603-0.316c-3.392-0.421-5.338-1.999-5.338-5.496c0-3.313,2.314-5.759,7.442-5.759
			c4.76,0,7.1,1.893,7.468,5.812h-4.339C159.834,100.292,159.203,99.398,156.915,99.398 M172.956,100.923
			c5.049,0,7.126,2.787,7.126,7.021c0,4.234-2.077,7.021-7.126,7.021c-5.049,0-7.126-2.787-7.126-7.021
			C165.83,103.711,167.907,100.923,172.956,100.923 M172.956,111.442c2.183,0,3.103-1.289,3.103-3.497
			c0-2.209-0.92-3.498-3.103-3.498c-2.183,0-3.103,1.289-3.103,3.498C169.853,110.154,170.774,111.442,172.956,111.442
			 M181.397,112.994v-16.83h3.971v18.408h-2.393C181.923,114.571,181.397,114.046,181.397,112.994 M192.048,114.966
			c-3.392,0-5.154-1.525-5.154-5.89v-7.758h3.971v7.574c0,1.762,0.763,2.551,2.367,2.551c1.446,0,2.341-0.789,2.341-2.551v-7.574
			h3.971v13.254h-3.734v-1.525C195.256,114.072,194.125,114.966,192.048,114.966 M206.695,104.552v5.154
			c0,1.42,0.736,1.788,1.893,1.788c0.473,0,1.131-0.079,1.131-0.079v3.182c0,0-0.92,0.21-1.893,0.21
			c-3.182,0-5.102-1.446-5.102-4.655v-5.601h-1.999v-3.235h1.999v-3.866h3.971v3.866h3.024v3.235H206.695z M214.873,99.556h-3.971
			v-3.392h3.971V99.556z M214.873,114.571h-3.971v-13.254h3.971V114.571z M223.288,100.923c5.049,0,7.126,2.787,7.126,7.021
			c0,4.234-2.077,7.021-7.126,7.021c-5.049,0-7.126-2.787-7.126-7.021C216.161,103.711,218.239,100.923,223.288,100.923
			 M223.288,111.442c2.183,0,3.103-1.289,3.103-3.497c0-2.209-0.92-3.498-3.103-3.498c-2.183,0-3.103,1.289-3.103,3.498
			C220.185,110.154,221.105,111.442,223.288,111.442 M239.25,100.923c3.445,0,5.207,1.525,5.207,5.891v7.758h-3.971v-7.574
			c0-1.762-0.763-2.551-2.419-2.551c-1.499,0-2.393,0.789-2.393,2.551v7.574h-3.971v-13.254h3.734v1.525
			C235.989,101.817,237.119,100.923,239.25,100.923 M245.508,110.495h3.918c0.105,0.973,0.789,1.446,2.314,1.446
			c1.552,0,2.183-0.368,2.183-1.104c0-0.684-0.526-0.999-1.893-1.183l-1.394-0.184c-2.919-0.394-4.602-1.525-4.602-4.155
			c0-2.551,1.657-4.392,5.785-4.392c3.655,0,5.575,1.446,5.759,4.313h-3.866c-0.132-0.763-0.552-1.236-1.893-1.236
			c-1.315,0-1.814,0.447-1.814,1.026c0,0.579,0.316,0.894,1.446,1.052l1.394,0.184c3.366,0.447,5.049,1.499,5.049,4.26
			c0,2.787-1.841,4.444-6.153,4.444C247.191,114.966,245.587,113.151,245.508,110.495"/>
	</g>
</g>
</svg>
